<svg width="20" height="20" viewBox="0 0 20 20" fill="none" xmlns="http://www.w3.org/2000/svg">
<path d="M17.0702 3.05176e-05L2.92963 3.05176e-05C1.31433 3.05176e-05 -6.10352e-05 1.31442 -6.10352e-05 2.92972L-6.10352e-05 17.0703C-6.10352e-05 18.6856 1.31433 20 2.92963 20L8.82806 20L8.82806 12.9297H6.48431V9.41409H8.82806V7.03128C8.82806 5.09265 10.4051 3.51565 12.3437 3.51565L15.8984 3.51565L15.8984 7.03128L12.3437 7.03128V9.41409H15.8984L15.3124 12.9297H12.3437L12.3437 20H17.0702C18.6855 20 19.9999 18.6856 19.9999 17.0703L19.9999 2.92972C19.9999 1.31442 18.6855 3.05176e-05 17.0702 3.05176e-05Z" fill="black"/>
</svg>
