<svg width="29" height="21" viewBox="0 0 29 21" fill="none" xmlns="http://www.w3.org/2000/svg">
<path d="M26.6373 0H2.03924C1.55619 0.000560118 1.0931 0.17067 0.751536 0.473027C0.409967 0.775384 0.217796 1.18531 0.217163 1.6129V15.3226C0.217796 15.7502 0.409967 16.1601 0.751536 16.4625C1.0931 16.7648 1.55619 16.9349 2.03924 16.9355H11.4286L10.8211 18.5484H9.32755C9.20673 18.5484 9.09087 18.5909 9.00544 18.6665C8.92002 18.7421 8.87203 18.8447 8.87203 18.9516V19.7581H4.77235C4.65154 19.7581 4.53568 19.8005 4.45025 19.8762C4.36483 19.9518 4.31684 20.0543 4.31684 20.1613C4.31684 20.2682 4.36483 20.3708 4.45025 20.4464C4.53568 20.522 4.65154 20.5645 4.77235 20.5645H24.8152C24.936 20.5645 25.0519 20.522 25.1373 20.4464C25.2227 20.3708 25.2707 20.2682 25.2707 20.1613C25.2707 20.0543 25.2227 19.9518 25.1373 19.8762C25.0519 19.8005 24.936 19.7581 24.8152 19.7581H19.8045V18.9516C19.8045 18.8447 19.7565 18.7421 19.6711 18.6665C19.5856 18.5909 19.4698 18.5484 19.349 18.5484H17.8554L17.2479 16.9355H26.6373C27.1203 16.9349 27.5834 16.7648 27.925 16.4625C28.2665 16.1601 28.4587 15.7502 28.4594 15.3226V1.6129C28.4587 1.18531 28.2665 0.775384 27.925 0.473027C27.5834 0.17067 27.1203 0.000560118 26.6373 0ZM18.8934 19.3548V19.7581H9.78306V19.3548H18.8934ZM11.7817 18.5484L12.3892 16.9355H16.2873L16.8949 18.5484H11.7817ZM27.5483 15.3226C27.548 15.5364 27.4519 15.7413 27.2811 15.8925C27.1103 16.0437 26.8788 16.1288 26.6373 16.129H2.03924C1.79771 16.1288 1.56617 16.0437 1.39539 15.8925C1.2246 15.7413 1.12852 15.5364 1.1282 15.3226V14.5161H27.5483V15.3226ZM7.94163 10.0806L7.77081 13.7097H7.24013L7.06931 10.0806H7.94163ZM7.13194 9.27419L7.436 7.66129H7.57494L7.87899 9.27419H7.13194ZM7.50547 6.85484C7.0118 6.85484 6.59443 6.30091 6.59443 5.64516C6.59443 5.23135 7.07159 4.63004 7.50433 4.20615C7.89437 4.58921 8.41651 5.20161 8.41651 5.64516C8.41651 6.30091 7.99914 6.85484 7.50547 6.85484ZM12.4627 6.04839L12.5162 6.14365V6.45161H10.6941V6.14365L10.7476 6.04839H12.4627ZM11.2031 5.24194L11.6051 4.53075L12.0071 5.24194H11.2031ZM12.5162 7.25806V13.6593C12.5164 13.6761 12.5177 13.693 12.5202 13.7097H10.6901C10.6926 13.693 10.6939 13.6761 10.6941 13.6593V7.25806H12.5162ZM16.6159 5.64516H17.9824V6.45161H17.5269C17.4061 6.45161 17.2902 6.4941 17.2048 6.56971C17.1194 6.64533 17.0714 6.7479 17.0714 6.85484C17.0714 6.96178 17.1194 7.06434 17.2048 7.13996C17.2902 7.21558 17.4061 7.25806 17.5269 7.25806H17.9824V8.06452H16.6159C16.495 8.06452 16.3792 8.107 16.2938 8.18262C16.2083 8.25824 16.1603 8.3608 16.1603 8.46774C16.1603 8.57468 16.2083 8.67725 16.2938 8.75287C16.3792 8.82849 16.495 8.87097 16.6159 8.87097H17.9824V9.67742H17.5269C17.4061 9.67742 17.2902 9.7199 17.2048 9.79552C17.1194 9.87114 17.0714 9.9737 17.0714 10.0806C17.0714 10.1876 17.1194 10.2901 17.2048 10.3658C17.2902 10.4414 17.4061 10.4839 17.5269 10.4839H17.9824V11.2903H16.6159C16.495 11.2903 16.3792 11.3328 16.2938 11.4084C16.2083 11.484 16.1603 11.5866 16.1603 11.6935C16.1603 11.8005 16.2083 11.9031 16.2938 11.9787C16.3792 12.0543 16.495 12.0968 16.6159 12.0968H17.9824V13.7097H14.7938V4.03226H17.9824V4.83871H16.6159C16.495 4.83871 16.3792 4.88119 16.2938 4.95681C16.2083 5.03243 16.1603 5.13499 16.1603 5.24194C16.1603 5.34888 16.2083 5.45144 16.2938 5.52706C16.3792 5.60268 16.495 5.64516 16.6159 5.64516ZM22.0821 10.4839V13.6593C22.0823 13.6761 22.0836 13.693 22.0861 13.7097H20.256C20.2585 13.693 20.2598 13.6761 20.26 13.6593V10.4839H22.0821ZM20.26 9.67742V9.36946L21.171 7.75655L22.0821 9.36946V9.67742H20.26ZM27.5483 13.7097H22.9891C22.9916 13.693 22.9929 13.6761 22.9931 13.6593V9.27419C22.9931 9.21159 22.9767 9.14985 22.9453 9.09375L21.5787 6.6744C21.5408 6.60743 21.4826 6.55113 21.4106 6.51178C21.3386 6.47243 21.2557 6.4516 21.171 6.4516C21.0864 6.4516 21.0035 6.47243 20.9315 6.51178C20.8595 6.55113 20.8013 6.60743 20.7634 6.6744L19.3968 9.09375C19.3654 9.14985 19.349 9.21159 19.349 9.27419V13.6593C19.3491 13.6761 19.3505 13.693 19.353 13.7097H18.8934V3.62903C18.8934 3.52209 18.8455 3.41953 18.76 3.34391C18.6746 3.26829 18.5587 3.22581 18.4379 3.22581H14.3383C14.2174 3.22581 14.1016 3.26829 14.0162 3.34391C13.9307 3.41953 13.8827 3.52209 13.8827 3.62903V13.7097H13.4232C13.4257 13.693 13.427 13.6761 13.4272 13.6593V6.04839C13.4272 5.98579 13.4108 5.92404 13.3794 5.86794L12.0128 3.44859C11.9749 3.38163 11.9167 3.32532 11.8447 3.28598C11.7727 3.24663 11.6898 3.22579 11.6051 3.22579C11.5205 3.22579 11.4376 3.24663 11.3656 3.28598C11.2936 3.32532 11.2354 3.38163 11.1975 3.44859L9.83089 5.86794C9.7995 5.92404 9.78313 5.98579 9.78306 6.04839V13.6593C9.78324 13.6761 9.78457 13.693 9.78705 13.7097H8.68242L8.87146 9.69405C8.87203 9.68498 8.87146 9.67591 8.87146 9.66633V9.65423C8.8704 9.64004 8.8685 9.62591 8.86576 9.61189V9.61089L8.44441 7.37248C8.97338 7.01915 9.32755 6.37702 9.32755 5.64516C9.32755 4.60887 7.97067 3.46119 7.81579 3.33367C7.73139 3.26442 7.62055 3.22594 7.50547 3.22594C7.39039 3.22594 7.27955 3.26442 7.19515 3.33367C7.04027 3.46119 5.68339 4.60887 5.68339 5.64516C5.68339 6.37702 6.03756 7.01915 6.56653 7.37248L6.14518 9.61089V9.61189C6.14244 9.62591 6.14054 9.64004 6.13948 9.65423V9.66633C6.13948 9.67591 6.13891 9.68498 6.13948 9.69405L6.32852 13.7097H1.1282V1.6129C1.12852 1.3991 1.2246 1.19414 1.39539 1.04297C1.56617 0.891787 1.79771 0.806732 2.03924 0.806452H26.6373C26.8788 0.806732 27.1103 0.891787 27.2811 1.04297C27.4519 1.19414 27.548 1.3991 27.5483 1.6129V13.7097Z" fill="black"/>
<path d="M5.22794 14.9193H2.49483C2.37401 14.9193 2.25815 14.9618 2.17273 15.0374C2.0873 15.113 2.03931 15.2156 2.03931 15.3225C2.03931 15.4295 2.0873 15.532 2.17273 15.6077C2.25815 15.6833 2.37401 15.7258 2.49483 15.7258H5.22794C5.34875 15.7258 5.46462 15.6833 5.55004 15.6077C5.63547 15.532 5.68346 15.4295 5.68346 15.3225C5.68346 15.2156 5.63547 15.113 5.55004 15.0374C5.46462 14.9618 5.34875 14.9193 5.22794 14.9193Z" fill="black"/>
<path d="M7.04995 14.9193H6.59444C6.47362 14.9193 6.35776 14.9618 6.27233 15.0374C6.18691 15.113 6.13892 15.2156 6.13892 15.3225C6.13892 15.4295 6.18691 15.532 6.27233 15.6077C6.35776 15.6833 6.47362 15.7258 6.59444 15.7258H7.04995C7.17077 15.7258 7.28663 15.6833 7.37206 15.6077C7.45748 15.532 7.50547 15.4295 7.50547 15.3225C7.50547 15.2156 7.45748 15.113 7.37206 15.0374C7.28663 14.9618 7.17077 14.9193 7.04995 14.9193Z" fill="black"/>
<path d="M11.6052 7.66125C11.4844 7.66125 11.3685 7.70374 11.2831 7.77936C11.1976 7.85498 11.1497 7.95754 11.1497 8.06448V12.5C11.1497 12.6069 11.1976 12.7095 11.2831 12.7851C11.3685 12.8607 11.4844 12.9032 11.6052 12.9032C11.726 12.9032 11.8419 12.8607 11.9273 12.7851C12.0127 12.7095 12.0607 12.6069 12.0607 12.5V8.06448C12.0607 7.95754 12.0127 7.85498 11.9273 7.77936C11.8419 7.70374 11.726 7.66125 11.6052 7.66125Z" fill="black"/>
<path d="M21.171 10.8871C21.0502 10.8871 20.9344 10.9296 20.8489 11.0052C20.7635 11.0808 20.7155 11.1834 20.7155 11.2903V12.5C20.7155 12.6069 20.7635 12.7095 20.8489 12.7851C20.9344 12.8607 21.0502 12.9032 21.171 12.9032C21.2918 12.9032 21.4077 12.8607 21.4931 12.7851C21.5786 12.7095 21.6266 12.6069 21.6266 12.5V11.2903C21.6266 11.1834 21.5786 11.0808 21.4931 11.0052C21.4077 10.9296 21.2918 10.8871 21.171 10.8871Z" fill="black"/>
<path d="M2.49483 2.41937H6.13898C6.25979 2.41937 6.37565 2.37688 6.46108 2.30126C6.54651 2.22564 6.5945 2.12308 6.5945 2.01614C6.5945 1.9092 6.54651 1.80664 6.46108 1.73102C6.37565 1.6554 6.25979 1.61292 6.13898 1.61292H2.49483C2.37401 1.61292 2.25815 1.6554 2.17273 1.73102C2.0873 1.80664 2.03931 1.9092 2.03931 2.01614C2.03931 2.12308 2.0873 2.22564 2.17273 2.30126C2.25815 2.37688 2.37401 2.41937 2.49483 2.41937Z" fill="black"/>
<path d="M2.49483 3.62908H3.40586C3.52668 3.62908 3.64254 3.5866 3.72796 3.51098C3.81339 3.43536 3.86138 3.3328 3.86138 3.22586C3.86138 3.11892 3.81339 3.01635 3.72796 2.94073C3.64254 2.86511 3.52668 2.82263 3.40586 2.82263H2.49483C2.37401 2.82263 2.25815 2.86511 2.17273 2.94073C2.0873 3.01635 2.03931 3.11892 2.03931 3.22586C2.03931 3.3328 2.0873 3.43536 2.17273 3.51098C2.25815 3.5866 2.37401 3.62908 2.49483 3.62908Z" fill="black"/>
<path d="M24.3597 12.9033H26.1818C26.3026 12.9033 26.4184 12.8608 26.5039 12.7852C26.5893 12.7095 26.6373 12.607 26.6373 12.5C26.6373 12.3931 26.5893 12.2905 26.5039 12.2149C26.4184 12.1393 26.3026 12.0968 26.1818 12.0968H24.3597C24.2389 12.0968 24.123 12.1393 24.0376 12.2149C23.9522 12.2905 23.9042 12.3931 23.9042 12.5C23.9042 12.607 23.9522 12.7095 24.0376 12.7852C24.123 12.8608 24.2389 12.9033 24.3597 12.9033Z" fill="black"/>
<path d="M25.7263 11.6935H26.1818C26.3026 11.6935 26.4185 11.6511 26.5039 11.5754C26.5893 11.4998 26.6373 11.3973 26.6373 11.2903C26.6373 11.1834 26.5893 11.0808 26.5039 11.0052C26.4185 10.9296 26.3026 10.8871 26.1818 10.8871H25.7263C25.6055 10.8871 25.4896 10.9296 25.4042 11.0052C25.3187 11.0808 25.2708 11.1834 25.2708 11.2903C25.2708 11.3973 25.3187 11.4998 25.4042 11.5754C25.4896 11.6511 25.6055 11.6935 25.7263 11.6935Z" fill="black"/>
</svg>
