<svg width="29" height="24" viewBox="0 0 29 24" fill="none" xmlns="http://www.w3.org/2000/svg">
<path d="M3.74712 14.954L1.64071 14.5426C1.02335 15.6452 0.437492 16.8837 0.437492 18.3105C0.437492 19.7101 0.999633 20.9336 1.64071 22.0785L8.76673 20.687V23.4312L11.249 22.3325L13.7312 23.4312V20.6884L20.8016 22.0792C21.4142 20.9853 22.0053 19.7435 22.0053 18.3105C22.0053 18.0636 21.9846 17.8177 21.9499 17.5781H28.6797V0H3.74712V14.954ZM2.58489 20.394C2.36966 19.8902 2.09231 19.0898 2.09231 18.3105C2.09231 17.5312 2.36971 16.7307 2.58489 16.227L8.76673 17.4342V19.1869L2.58489 20.394ZM12.0764 21.061L11.249 20.6948L10.4215 21.061V17.5781H12.0764V21.061ZM19.8582 20.3931L13.7312 19.1878V17.4332L19.8582 16.2279C20.0734 16.7318 20.3504 17.5317 20.3504 18.3105C20.3504 19.0895 20.0734 19.8895 19.8582 20.3931ZM27.0249 1.46484V16.1133H21.5669C21.2957 15.3788 21.077 15.0319 20.8016 14.5418L12.813 16.1133H9.68438L5.40194 15.277V1.46484H27.0249Z" fill="black"/>
<path d="M10.4215 2.92969H22.0053V4.39453H10.4215V2.92969Z" fill="black"/>
<path d="M7.05676 8.78906H25.37V10.2539H7.05676V8.78906Z" fill="black"/>
<path d="M10.4215 11.7188H22.0053V13.1836H10.4215V11.7188Z" fill="black"/>
<path d="M12.0764 5.85938H13.7312V7.32422H12.0764V5.85938Z" fill="black"/>
<path d="M15.386 5.85938H17.0408V7.32422H15.386V5.85938Z" fill="black"/>
<path d="M18.6956 5.85938H20.3504V7.32422H18.6956V5.85938Z" fill="black"/>
</svg>
