<svg width="30" height="25" viewBox="0 0 30 25" fill="none" xmlns="http://www.w3.org/2000/svg">
<path d="M23.8253 19.1457L23.091 19.5793L24.82 21.875H5.28739L7.34687 19.1406H18.5586V18.3594H7.11078C7.03815 18.3594 6.96663 18.3752 6.90259 18.4055C6.83854 18.4359 6.78394 18.4797 6.74363 18.5332L4.09593 22.0488C4.04771 22.1131 4.02193 22.1885 4.02179 22.2656V23.4375C4.02179 23.6447 4.11477 23.8434 4.28029 23.9899C4.4458 24.1364 4.67029 24.2188 4.90436 24.2188H25.2034C25.4375 24.2188 25.662 24.1364 25.8275 23.9899C25.993 23.8434 26.086 23.6447 26.086 23.4375V22.2656C26.0859 22.1885 26.0601 22.1131 26.0119 22.0488L23.8253 19.1457ZM4.90436 23.4375V22.6562H25.2034V23.4375H4.90436Z" fill="black"/>
<path d="M23.8796 0.78125H6.22821C5.87743 0.782177 5.54131 0.90594 5.29326 1.12551C5.04522 1.34508 4.90541 1.64261 4.90436 1.95312V12.1094C4.90541 12.4199 5.04522 12.7174 5.29326 12.937C5.54131 13.1566 5.87743 13.2803 6.22821 13.2812H12.4062V14.8438H10.6411C10.524 14.8438 10.4118 14.8849 10.329 14.9582C10.2463 15.0314 10.1998 15.1308 10.1998 15.2344V16.7969C10.1998 16.9005 10.2463 16.9998 10.329 17.0731C10.4118 17.1463 10.524 17.1875 10.6411 17.1875H19.4667C19.5838 17.1875 19.696 17.1463 19.7788 17.0731C19.8615 16.9998 19.908 16.9005 19.908 16.7969V15.2344C19.908 15.1308 19.8615 15.0314 19.7788 14.9582C19.696 14.8849 19.5838 14.8438 19.4667 14.8438H17.7016V13.2812H23.8796C24.2304 13.2803 24.5665 13.1566 24.8145 12.937C25.0626 12.7174 25.2024 12.4199 25.2034 12.1094V1.95312C25.2024 1.64261 25.0626 1.34508 24.8145 1.12551C24.5665 0.90594 24.2304 0.782177 23.8796 0.78125ZM19.0255 15.625V16.4062H11.0823V15.625H19.0255ZM13.2888 14.8438V13.2812H16.819V14.8438H13.2888ZM24.3209 12.1094C24.3209 12.213 24.2744 12.3123 24.1916 12.3856C24.1089 12.4588 23.9966 12.5 23.8796 12.5H6.22821C6.11117 12.5 5.99893 12.4588 5.91618 12.3856C5.83342 12.3123 5.78693 12.213 5.78693 12.1094V10.9375H24.3209V12.1094ZM24.3209 10.1562H5.78693V1.95312C5.78693 1.84952 5.83342 1.75017 5.91618 1.67691C5.99893 1.60366 6.11117 1.5625 6.22821 1.5625H23.8796C23.9966 1.5625 24.1089 1.60366 24.1916 1.67691C24.2744 1.75017 24.3209 1.84952 24.3209 1.95312V10.1562Z" fill="black"/>
<path d="M21.6732 11.3281H22.5557V12.1094H21.6732V11.3281Z" fill="black"/>
<path d="M11.0823 9.375H12.8475C12.9645 9.375 13.0768 9.33385 13.1595 9.26059C13.2423 9.18733 13.2888 9.08798 13.2888 8.98438V8.59375H16.819V8.98438C16.819 9.08798 16.8655 9.18733 16.9483 9.26059C17.031 9.33385 17.1433 9.375 17.2603 9.375H19.0255C19.1425 9.375 19.2547 9.33385 19.3375 9.26059C19.4202 9.18733 19.4667 9.08798 19.4667 8.98438V7.42188C19.4667 7.31827 19.4202 7.21892 19.3375 7.14566C19.2547 7.0724 19.1425 7.03125 19.0255 7.03125H18.5842V4.6875H19.0255C19.1425 4.6875 19.2547 4.64634 19.3375 4.57309C19.4202 4.49983 19.4667 4.40048 19.4667 4.29688V2.73438C19.4667 2.63077 19.4202 2.53142 19.3375 2.45816C19.2547 2.38491 19.1425 2.34375 19.0255 2.34375H17.2603C17.1433 2.34375 17.031 2.38491 16.9483 2.45816C16.8655 2.53142 16.819 2.63077 16.819 2.73438V3.125H13.2888V2.73438C13.2888 2.63077 13.2423 2.53142 13.1595 2.45816C13.0768 2.38491 12.9645 2.34375 12.8475 2.34375H11.0823C10.9653 2.34375 10.8531 2.38491 10.7703 2.45816C10.6875 2.53142 10.6411 2.63077 10.6411 2.73438V4.29688C10.6411 4.40048 10.6875 4.49983 10.7703 4.57309C10.8531 4.64634 10.9653 4.6875 11.0823 4.6875H11.5236V7.03125H11.0823C10.9653 7.03125 10.8531 7.0724 10.7703 7.14566C10.6875 7.21892 10.6411 7.31827 10.6411 7.42188V8.98438C10.6411 9.08798 10.6875 9.18733 10.7703 9.26059C10.8531 9.33385 10.9653 9.375 11.0823 9.375ZM18.5842 8.59375H17.7016V7.8125H18.5842V8.59375ZM17.7016 3.125H18.5842V3.90625H17.7016V3.125ZM11.5236 3.125H12.4062V3.90625H11.5236V3.125ZM12.4062 4.6875H12.8475C12.9645 4.6875 13.0768 4.64634 13.1595 4.57309C13.2423 4.49983 13.2888 4.40048 13.2888 4.29688V3.90625H16.819V4.29688C16.819 4.40048 16.8655 4.49983 16.9483 4.57309C17.031 4.64634 17.1433 4.6875 17.2603 4.6875H17.7016V7.03125H17.2603C17.1433 7.03125 17.031 7.0724 16.9483 7.14566C16.8655 7.21892 16.819 7.31827 16.819 7.42188V7.8125H13.2888V7.42188C13.2888 7.31827 13.2423 7.21892 13.1595 7.14566C13.0768 7.0724 12.9645 7.03125 12.8475 7.03125H12.4062V4.6875ZM11.5236 7.8125H12.4062V8.59375H11.5236V7.8125Z" fill="black"/>
<path d="M11.0823 20.3125H17.2603V21.0938H11.0823V20.3125Z" fill="black"/>
<path d="M27.3525 14.3906L26.1036 13.2852C26.0626 13.2488 26.0137 13.22 25.9599 13.2006C25.9061 13.1811 25.8484 13.1714 25.7903 13.1719C25.7329 13.1714 25.6759 13.1812 25.6228 13.2006C25.5697 13.2201 25.5217 13.2489 25.4814 13.2852L19.5506 18.5352C19.5022 18.5779 19.4659 18.6301 19.4447 18.6875L19.1314 19.5156C19.1062 19.5843 19.1027 19.6577 19.1214 19.728C19.14 19.7982 19.1801 19.8626 19.2373 19.9141L18.6151 20.4688L19.2373 21.0195L19.8639 20.4688C19.9044 20.5048 19.9525 20.5333 20.0055 20.5528C20.0585 20.5722 20.1154 20.5822 20.1728 20.582C20.2207 20.5816 20.2682 20.575 20.314 20.5625L21.2495 20.2852C21.3144 20.2664 21.3734 20.2342 21.4216 20.1914L27.3525 14.9414C27.4347 14.8682 27.4808 14.7692 27.4808 14.666C27.4808 14.5628 27.4347 14.4638 27.3525 14.3906ZM20.8744 19.5742L20.2963 19.7422L20.0536 19.5313L20.2478 19.0195L24.5415 15.2188L25.1681 15.7695L20.8744 19.5742ZM25.7903 15.2188L25.1681 14.668L25.7903 14.1133L26.417 14.668L25.7903 15.2188Z" fill="black"/>
</svg>
