<svg width="29" height="25" viewBox="0 0 29 25" fill="none" xmlns="http://www.w3.org/2000/svg">
<g clip-path="url(#clip0_11_59)">
<path d="M25.8695 3.75H13.1605V4.58333H25.8695V3.75Z" fill="black"/>
<path d="M21.1625 5.41663H13.1605V6.24996H21.1625V5.41663Z" fill="black"/>
<path d="M21.1625 7.08337H13.1605V7.91671H21.1625V7.08337Z" fill="black"/>
<path d="M25.8695 2.08337H16.9261V2.91671H25.8695V2.08337Z" fill="black"/>
<path d="M15.9847 2.08337H15.0433V2.91671H15.9847V2.08337Z" fill="black"/>
<path d="M15.0433 16.6666H14.1019V17.5H15.0433V16.6666Z" fill="black"/>
<path d="M8.3156 2.79461L7.65002 2.20544L6.70861 3.03878C6.52486 3.20149 6.52486 3.46524 6.70861 3.62794L7.65002 4.46128L8.3156 3.87211L7.70698 3.33336L8.3156 2.79461Z" fill="black"/>
<path d="M12.0812 3.03878L11.1398 2.20544L10.4742 2.79461L11.0828 3.33336L10.4742 3.87211L11.1398 4.46128L12.0812 3.62794C12.2649 3.46524 12.2649 3.20149 12.0812 3.03878Z" fill="black"/>
<path d="M9.4194 1.95109L8.47711 4.45105L9.36968 4.71467L10.312 2.21471L9.4194 1.95109Z" fill="black"/>
<path d="M24.9281 12.9167V9.58333H23.9867V12.9167H23.0453V8.75H22.1039V12.9167H21.1625V10.8333H20.2211V12.9167H19.2797V10.4167H18.3383V12.9167H17.3969V11.25H16.4554V12.9167H15.514V13.75H25.8695V12.9167H24.9281Z" fill="black"/>
<path d="M25.3988 0H3.74646C2.18731 0.00135417 0.923771 1.11984 0.922241 2.5V10.6775V10.6812V15.4167V16.6667C0.923771 18.0468 2.18731 19.1653 3.74646 19.1667H9.57471L7.69189 22.5H5.15857C4.37867 22.5 3.74646 23.0596 3.74646 23.75C3.74646 24.4404 4.37867 25 5.15857 25H23.9867C24.7666 25 25.3988 24.4404 25.3988 23.75C25.3988 23.0596 24.7666 22.5 23.9867 22.5H21.4534L19.5706 19.1667H25.3988C26.9579 19.1653 28.2215 18.0468 28.223 16.6667V2.5C28.2215 1.11984 26.9579 0.00135417 25.3988 0ZM1.86365 5.8625L2.93356 6.99C3.02299 7.08432 3.15502 7.13875 3.29411 7.13875H4.73494C4.87403 7.13875 5.00606 7.08432 5.0955 6.99L6.16587 5.8625L7.22213 6.16625L7.33887 7.63417C7.34852 7.75693 7.419 7.86964 7.53138 7.94208L8.69732 8.69208C8.81011 8.76417 8.95297 8.7887 9.088 8.75917L10.7039 8.40375L11.3573 9.19917L10.4766 10.4492C10.4036 10.554 10.3867 10.6819 10.4304 10.7987L10.8762 12.0117C10.9191 12.1286 11.0181 12.2229 11.1469 12.2692L12.6898 12.8229V13.8062L11.1459 14.36C11.0169 14.406 10.9177 14.5006 10.8753 14.6179L10.734 15H8.02233C9.07717 13.045 8.14189 10.7032 5.93335 9.76943C4.63615 9.22099 3.11895 9.26359 1.86365 9.88375V5.8625ZM1.86365 10.875C3.38614 9.82359 5.58326 10.0638 6.77096 11.4116C7.68801 12.4521 7.75879 13.8929 6.94724 15H1.86365V10.875ZM23.9867 23.3333C24.2466 23.3333 24.4574 23.5199 24.4574 23.75C24.4574 23.9801 24.2466 24.1667 23.9867 24.1667H5.15857C4.89862 24.1667 4.68787 23.9801 4.68787 23.75C4.68787 23.5199 4.89862 23.3333 5.15857 23.3333H23.9867ZM20.4009 22.5H8.74439L10.6272 19.1667H18.5181L20.4009 22.5ZM27.2816 16.6667C27.2816 17.5871 26.4386 18.3333 25.3988 18.3333H3.74646C2.70662 18.3333 1.86365 17.5871 1.86365 16.6667V15.8333H7.19295H7.19718H27.2816V16.6667ZM27.2816 15H11.8684L13.3375 14.4729C13.515 14.4092 13.6311 14.2566 13.6312 14.0871V12.5417C13.6313 12.372 13.5151 12.2192 13.3375 12.1554L11.7013 11.5696L11.3916 10.7258L12.3246 9.40083C12.4258 9.25688 12.4183 9.07302 12.3057 8.93583L11.2796 7.68583C11.1669 7.54849 10.9715 7.48536 10.7854 7.52625L9.07388 7.90125L8.26521 7.38125L8.14142 5.82708C8.12794 5.65766 7.99962 5.5124 7.8171 5.46L6.15787 4.9825C5.9753 4.93104 5.77572 4.98182 5.65187 5.11125L4.51888 6.305H3.51487L2.38142 5.11125C2.25751 4.98167 2.05764 4.93083 1.87494 4.9825L1.86365 4.98625V2.5C1.86365 1.57953 2.70662 0.833333 3.74646 0.833333H25.3988C26.4386 0.833333 27.2816 1.57953 27.2816 2.5V15Z" fill="black"/>
</g>
<defs>
<clipPath id="clip0_11_59">
<rect width="28.2422" height="25" fill="white" transform="translate(0.451538)"/>
</clipPath>
</defs>
</svg>
