<svg width="23" height="25" viewBox="0 0 23 25" fill="none" xmlns="http://www.w3.org/2000/svg">
<path d="M19.7114 16.333L18.0539 15.9022L14.4477 13.8172V13.3394C15.4918 12.6423 16.2088 11.5767 16.342 10.3553C16.8657 10.2807 17.2669 9.87789 17.2669 9.39371V8.07999C17.2669 8.07491 17.2663 8.06993 17.266 8.06486V6.4007C17.4746 6.26847 17.607 6.05309 17.607 5.81149V4.28854L20.0957 3.91329C20.5047 3.85162 20.7988 3.56407 20.8277 3.19772C20.8565 2.83136 20.6103 2.51046 20.215 2.39918L11.8252 0.0369751C11.6501 -0.0123413 11.4652 -0.0122925 11.2903 0.0369263L2.90042 2.39918C2.50508 2.51046 2.25885 2.83136 2.28769 3.19767C2.30601 3.43043 2.43166 3.63112 2.62561 3.76256V5.75411H2.60509C2.13264 5.75411 1.74828 6.09435 1.74828 6.51256V7.50113L1.19519 10.3748C1.09959 10.8718 1.53205 11.3267 2.10296 11.3267H3.97561C4.54525 11.3267 4.9792 10.8729 4.88338 10.3747L4.33029 7.50113V6.51256C4.33029 6.09435 3.94593 5.75411 3.47348 5.75411H3.45302V3.97858L5.51017 4.28873V5.81149C5.51017 6.05206 5.64195 6.2671 5.84958 6.39952L5.85035 8.08014V9.39371C5.85035 9.87794 6.25153 10.2807 6.77517 10.3553C6.90838 11.576 7.62459 12.6411 8.66767 13.3383V13.8183L5.06227 15.9029L3.40607 16.3332C1.63382 16.7937 0.38245 18.2339 0.38245 19.9082V20.9996C0.38245 21.2018 0.567624 21.3658 0.796154 21.3658C1.02468 21.3658 1.20986 21.2019 1.20986 20.9996V19.9082C1.20986 18.5886 2.20876 17.4075 3.63913 17.0359L5.1823 16.635L11.3474 19.8778C11.4725 19.9436 11.6381 19.9471 11.77 19.8778L17.9355 16.6348L19.4785 17.0358C20.9086 17.4074 21.9075 18.5885 21.9075 19.9079V23.4449C21.9075 23.8986 21.4906 24.2677 20.9781 24.2677H19.1546V22.6892C19.1546 22.4869 18.9695 22.323 18.7409 22.323C18.5124 22.323 18.3272 22.4869 18.3272 22.6892V24.2677H4.78818V22.6892C4.78818 22.4869 4.603 22.323 4.37447 22.323C4.14594 22.323 3.96077 22.4869 3.96077 22.6892V24.2677H2.1392C1.62671 24.2677 1.20975 23.8986 1.20975 23.4449V22.7114C1.20975 22.5092 1.02457 22.3452 0.796043 22.3452C0.567513 22.3452 0.382339 22.5091 0.382339 22.7114V23.4449C0.382339 24.3024 1.17042 25 2.13915 25H20.978C21.9467 25 22.7348 24.3024 22.7348 23.4449V19.9079C22.7348 18.2731 21.5261 16.8046 19.7114 16.333ZM3.97555 10.5943H2.10296C2.0451 10.5943 2.00097 10.5485 2.01079 10.4977L2.51109 7.8983H3.56742L4.06772 10.4977C4.07749 10.5484 4.03369 10.5943 3.97555 10.5943ZM3.50288 6.51256V7.16593H2.57558V6.51256C2.57558 6.49816 2.58876 6.48649 2.60503 6.48649H3.47337C3.4897 6.48644 3.50288 6.49816 3.50288 6.51256ZM10.079 18.2213L10.2437 18.4453L6.02008 16.2237L8.70093 14.6737C8.82251 15.9364 9.2927 17.1515 10.079 18.2213ZM10.0761 16.6404C11.0499 16.7629 12.0667 16.763 13.041 16.6404C12.8528 17.0505 12.6208 17.4462 12.3447 17.8219L11.5586 18.8914L10.7725 17.8219C10.4964 17.4462 10.2644 17.0505 10.0761 16.6404ZM13.0382 18.2213C13.8245 17.1515 14.2947 15.9364 14.4162 14.6737L17.097 16.2237L12.8735 18.4453L13.0382 18.2213ZM15.4581 6.53707H16.4386V7.71373H15.952C15.6796 7.71373 15.458 7.51764 15.458 7.27657V6.53707H15.4581ZM3.15118 3.09713L11.5411 0.734827C11.5519 0.731799 11.5635 0.73175 11.5744 0.734876L19.9643 3.09713C19.9816 3.10201 20.0054 3.10865 20.0024 3.14679C19.9994 3.18488 19.9748 3.18854 19.9568 3.19127L17.1829 3.60948L16.1415 3.49547C15.9149 3.47062 15.7083 3.61329 15.6802 3.81398C15.6522 4.01471 15.8133 4.19752 16.04 4.22233L16.7797 4.30333V5.8047L6.33753 5.80436V4.30328L10.6184 3.83439C11.2419 3.76617 11.874 3.76617 12.4971 3.83439L14.1174 4.01178C14.3441 4.03663 14.5507 3.89401 14.5787 3.69332C14.6068 3.49259 14.4457 3.30978 14.219 3.28492L12.5987 3.10753C11.9083 3.0319 11.2078 3.0319 10.5168 3.10753L5.93331 3.60958L3.15857 3.19127C3.14059 3.18854 3.11604 3.18488 3.11301 3.14679C3.11003 3.10865 3.1338 3.10197 3.15118 3.09713ZM6.67748 7.71373L6.67693 6.53707H7.65906V7.27662C7.65906 7.51764 7.43754 7.71378 7.16515 7.71378H6.67748V7.71373ZM7.58802 10.1671C7.56672 9.86886 7.28673 9.63527 6.95063 9.63527C6.8001 9.63527 6.67765 9.52687 6.67765 9.39366V8.44615H7.16515C7.89366 8.44615 8.48641 7.9215 8.48641 7.27662V6.53707H14.6307V7.27662C14.6307 7.9215 15.2234 8.44615 15.952 8.44615H16.4395V9.39366C16.4395 9.52687 16.317 9.63527 16.1665 9.63527C15.8304 9.63527 15.5504 9.86886 15.5291 10.1671C15.3973 12.0162 13.6532 13.4647 11.5585 13.4647C9.4638 13.4647 7.71979 12.0162 7.58802 10.1671ZM11.5586 14.197C12.2944 14.197 12.9937 14.0481 13.6204 13.7833V14.0154C13.6204 14.6415 13.5249 15.2591 13.3412 15.8548C12.2169 16.0446 10.9459 16.0523 9.77596 15.8548C9.59222 15.2592 9.49679 14.6416 9.49679 14.0154C9.49679 14.0076 9.49558 14.0001 9.49502 13.9924C9.49491 13.9909 9.49508 13.9894 9.49497 13.9879V13.7826C10.1221 14.0478 10.8221 14.197 11.5586 14.197Z" fill="black"/>
</svg>
